<svg width="240" height="240" viewBox="0 0 240 240" fill="none" xmlns="http://www.w3.org/2000/svg">
<path d="M177.721 81.0587C174.975 78.3137 170.523 78.3137 167.778 81.0592L105.688 143.149L73.003 110.465C70.2576 107.719 65.8054 107.719 63.0595 110.465C60.3135 113.21 60.3135 117.662 63.0595 120.408L100.716 158.064C102.089 159.437 103.888 160.124 105.687 160.124C107.486 160.124 109.286 159.437 110.659 158.064L177.721 91.0023C180.467 88.2568 180.467 83.8046 177.721 81.0587Z" fill="url(#paint0_linear)"/>
<path d="M204.853 35.1469C182.188 12.4823 152.053 0 120 0C87.9464 0 57.8114 12.4823 35.1469 35.1469C12.4819 57.8119 0 87.9469 0 120C0 152.053 12.4819 182.188 35.1469 204.853C57.8119 227.518 87.9464 240 120 240C152.053 240 182.188 227.518 204.853 204.853C227.518 182.188 240 152.053 240 120C240 87.9469 227.518 57.8123 204.853 35.1469ZM120 225.938C61.5858 225.938 14.0625 178.414 14.0625 120C14.0625 61.5858 61.5858 14.0625 120 14.0625C178.414 14.0625 225.938 61.5858 225.938 120C225.938 178.414 178.414 225.938 120 225.938Z" fill="url(#paint1_linear)"/>
<defs>
<linearGradient id="paint0_linear" x1="-87.0601" y1="119.562" x2="179.78" y2="119.562" gradientUnits="userSpaceOnUse">
<stop stop-color="#9A6441"/>
<stop offset="1" stop-color="#BA9A85"/>
</linearGradient>
<linearGradient id="paint1_linear" x1="-299.161" y1="120" x2="240" y2="120" gradientUnits="userSpaceOnUse">
<stop stop-color="#9A6441"/>
<stop offset="1" stop-color="#BA9A85"/>
</linearGradient>
</defs>
</svg>
