<svg width="44" height="44" viewBox="0 0 44 44" fill="none" xmlns="http://www.w3.org/2000/svg">
<path d="M28.5572 11.707H15.4431C13.35 11.707 11.647 13.41 11.647 15.5032V28.6172C11.647 30.7104 13.35 32.4139 15.4431 32.4139H28.5572C30.6503 32.4139 32.3538 30.7109 32.3538 28.6172V15.5032C32.3538 13.41 30.6508 11.707 28.5572 11.707ZM22.0001 28.877C18.2417 28.877 15.1838 25.8191 15.1838 22.0602C15.1838 18.3018 18.2417 15.2439 22.0001 15.2439C25.7591 15.2439 28.817 18.3018 28.817 22.0602C28.817 25.8186 25.7586 28.877 22.0001 28.877ZM29.0361 16.6532C28.1464 16.6532 27.4228 15.9297 27.4228 15.0404C27.4228 14.1512 28.1464 13.4277 29.0361 13.4277C29.9253 13.4277 30.6489 14.1512 30.6489 15.0404C30.6489 15.9297 29.9253 16.6532 29.0361 16.6532Z" fill="#6A453B"/>
<path d="M21.9994 18.123C19.8297 18.123 18.063 19.8888 18.063 22.0584C18.063 24.2291 19.8297 25.9953 21.9994 25.9953C24.17 25.9953 25.9352 24.2291 25.9352 22.0584C25.9352 19.8893 24.1695 18.123 21.9994 18.123Z" fill="#6A453B"/>
<path d="M22 0C9.85022 0 0 9.85022 0 22C0 34.1498 9.85022 44 22 44C34.1498 44 44 34.1498 44 22C44 9.85022 34.1498 0 22 0ZM35.2336 28.6163C35.2336 32.2983 32.239 35.2929 28.557 35.2929H15.443C11.7615 35.2929 8.76637 32.2983 8.76637 28.6163V15.5023C8.76637 11.8209 11.7615 8.82569 15.443 8.82569H28.557C32.239 8.82569 35.2336 11.8209 35.2336 15.5023V28.6163Z" fill="#6A453B"/>
</svg>
