<svg width="44" height="44" viewBox="0 0 44 44" fill="none" xmlns="http://www.w3.org/2000/svg">
<path d="M7 16.3596H3.15953C1.4182 16.3596 0 17.7778 0 19.5191V38.1801C0 39.9214 1.4182 41.3396 3.15953 41.3396H6.13056C6.74092 41.3396 7.2346 40.8459 7.2346 40.2356C7.2346 39.6252 6.73195 39.1405 6.13056 39.1405H3.15953C2.62995 39.1405 2.1991 38.7097 2.1991 38.1801V19.5191C2.1991 18.9896 2.62995 18.5587 3.15953 18.5587H7C8.5 18.5587 8.5 16.3596 7 16.3596Z" fill="black"/>
<path fill-rule="evenodd" clip-rule="evenodd" d="M43.991 21.045C43.991 17.6701 41.2444 14.9145 37.8605 14.9145H28.3819V8.08381C28.3819 5.19356 27.5381 3.11114 25.8686 1.89041C23.2297 -0.0483857 19.6034 1.05565 19.4508 1.10951C18.9931 1.25312 18.6789 1.67499 18.6789 2.15969V9.83411C18.6789 15.8749 11.745 18.0406 11.3725 18.0202C11 17.9998 9.26316 18.9998 9.26316 20.4998V37.1209C9.26316 40.4959 12.0098 43.2515 15.3937 43.2515H34.1714C38.3362 43.2515 40.9841 41.0703 41.4508 37.3005L43.982 21.4131C43.991 21.3592 44 21.2964 44 21.2425V21.045H43.991ZM39.2697 36.9863L41.7919 21.1438H41.8009V21.054C41.8009 18.8818 40.0326 17.1226 37.8694 17.1226H27.2868C26.6765 17.1226 26.1828 16.6289 26.1828 16.0185V8.08381C26.1828 5.92958 25.6353 4.44855 24.5671 3.65867C23.4092 2.81494 21.8115 2.89572 20.878 3.03933V9.82514C20.878 17.5534 12.3329 20.0308 11.9649 20.1295C11.7944 20.1744 11.6238 20.1834 11.4623 20.1475V37.1209C11.4623 39.2931 13.2305 41.0524 15.3937 41.0524H33.4712H34.1714C37.2232 41.0524 38.9376 39.6791 39.2697 36.9863Z" fill="url(#paint0_linear)"/>
<defs>
<linearGradient id="paint0_linear" x1="44.3658" y1="38.334" x2="12.1828" y2="-3.00628" gradientUnits="userSpaceOnUse">
<stop stop-color="#B1907A"/>
<stop offset="1" stop-color="#B1907A"/>
</linearGradient>
</defs>
</svg>
