<svg width="29" height="22" viewBox="0 0 29 22" fill="none" xmlns="http://www.w3.org/2000/svg">
<path d="M12.9378 10.5954C13.6869 11.0948 15.0012 11.0949 15.7504 10.5954C15.7505 10.5953 15.7507 10.5952 15.7508 10.5952L28.518 2.08363C28.0992 0.872495 26.9482 0 25.5965 0H3.09148C1.73976 0 0.588743 0.872495 0.169922 2.08363L12.9374 10.5952C12.9376 10.5953 12.9377 10.5953 12.9378 10.5954Z" fill="url(#paint0_linear)"/>
<path d="M16.6826 11.9941C16.6824 11.9943 16.6823 11.9944 16.6822 11.9944C16.0266 12.4315 15.1849 12.6501 14.3435 12.6501C13.5019 12.6501 12.6606 12.4316 12.0049 11.9944C12.0047 11.9943 12.0047 11.9943 12.0046 11.9942L0 3.99121V18.3949C0 20.0991 1.38657 21.4856 3.09093 21.4856H25.5961C27.3004 21.4856 28.687 20.0991 28.687 18.3949V3.99121L16.6826 11.9941Z" fill="url(#paint1_linear)"/>
<defs>
<linearGradient id="paint0_linear" x1="-9.64288" y1="5.56939" x2="33.3154" y2="5.56939" gradientUnits="userSpaceOnUse">
<stop stop-color="#977752"/>
<stop offset="1" stop-color="#C9AF9E"/>
</linearGradient>
<linearGradient id="paint1_linear" x1="-9.9301" y1="12.873" x2="33.5417" y2="12.873" gradientUnits="userSpaceOnUse">
<stop stop-color="#977752"/>
<stop offset="1" stop-color="#C9AF9E"/>
</linearGradient>
</defs>
</svg>
