<svg width="49" height="49" viewBox="0 0 49 49" fill="none" xmlns="http://www.w3.org/2000/svg">
<path d="M29.2278 19.7726L22.2223 26.7398L19.7723 24.2706C19.3129 23.8113 18.576 23.8113 18.1167 24.2706C17.6573 24.73 17.6573 25.4669 18.1167 25.9263L21.3897 29.2185C21.6194 29.4482 21.9161 29.563 22.2223 29.563C22.519 29.563 22.8157 29.4482 23.0454 29.2185L30.8835 21.4283C31.3428 20.9689 31.3428 20.232 30.8835 19.7726C30.4337 19.3228 29.6872 19.3132 29.2278 19.7726Z" fill="black"/>
<path d="M44.6647 27.7541V10.183C44.6647 9.71401 44.3776 9.28335 43.947 9.10151L24.9499 1.17729C24.6628 1.05288 24.3374 1.05288 24.0503 1.17729L5.05322 9.10151C4.61299 9.28335 4.33545 9.71401 4.33545 10.183V27.7541C4.33545 38.8748 13.3794 47.9187 24.5001 47.9187C35.6208 47.9187 44.6647 38.8652 44.6647 27.7541ZM24.5001 45.574C14.6714 45.574 6.68018 37.5828 6.68018 27.7541V10.9677L24.5001 3.53159L42.32 10.9677V27.7541C42.32 37.5732 34.3288 45.574 24.5001 45.574Z" fill="url(#paint0_linear)"/>
<defs>
<linearGradient id="paint0_linear" x1="45" y1="42.5001" x2="8.5" y2="3.50012" gradientUnits="userSpaceOnUse">
<stop stop-color="#B1907A"/>
<stop offset="1" stop-color="#B1907A"/>
</linearGradient>
</defs>
</svg>
