<?xml version="1.0" encoding="UTF-8" standalone="no"?>
<!DOCTYPE svg PUBLIC "-//W3C//DTD SVG 1.1//EN" "http://www.w3.org/Graphics/SVG/1.1/DTD/svg11.dtd">
<svg version="1.1" xmlns="http://www.w3.org/2000/svg" xmlns:xlink="http://www.w3.org/1999/xlink" preserveAspectRatio="xMidYMid meet" viewBox="0 0 667 667" width="667" height="667"><defs><path d="M667 0C667 0 667 0 667 0C667 400.2 667 622.53 667 667C667 667 667 667 667 667C266.8 667 44.47 667 0 667C0 667 0 667 0 667C0 266.8 0 44.47 0 0C0 0 0 0 0 0C400.2 0 622.53 0 667 0Z" id="bOTHym5M6"></path><path d="M149.33 308.95C138.85 313.03 139.48 328.07 150.27 331.25C155.75 332.87 183.15 340.96 232.47 355.53C250.87 413.93 261.1 446.38 263.14 452.87C266.35 463.03 279.23 466.12 286.69 458.5C289.52 455.61 303.69 441.14 329.19 415.11C379.22 451.83 407.02 472.23 412.58 476.31C422.78 483.8 437.31 478.24 439.9 465.85C445.43 439.44 489.61 228.21 495.13 201.81C497.84 188.87 485.11 178.1 472.8 182.9C408.11 208.11 181.67 296.34 149.33 308.95ZM281.99 374.36C280.5 375.69 279.54 377.52 279.32 379.51C278.74 384.65 274.11 425.79 273.53 430.93C273.35 432.61 271 432.83 270.5 431.22C268.12 423.55 249.08 362.19 246.7 354.53C245.61 351.01 247.03 347.21 250.15 345.27C267.9 334.27 409.84 246.23 427.58 235.23C431.66 232.7 435.84 238.31 432.25 241.49C402.19 268.07 297.02 361.07 281.99 374.36Z" id="a7bESqhBT"></path></defs><g><g><g><use xlink:href="#bOTHym5M6" opacity="1" fill="#0088cc" fill-opacity="1"></use><g><use xlink:href="#bOTHym5M6" opacity="1" fill-opacity="0" stroke="#000000" stroke-width="1" stroke-opacity="0"></use></g></g><g><use xlink:href="#a7bESqhBT" opacity="1" fill="#ffffff" fill-opacity="1"></use><g><use xlink:href="#a7bESqhBT" opacity="1" fill-opacity="0" stroke="#000000" stroke-width="1" stroke-opacity="0"></use></g></g></g></g></svg>