<svg width="27" height="26" viewBox="0 0 27 26" fill="none" xmlns="http://www.w3.org/2000/svg">
<path d="M26.2606 19.0814L22.6323 15.453C21.3364 14.1571 19.1335 14.6755 18.6151 16.3601C18.2264 17.5264 16.9305 18.1743 15.7643 17.9151C13.1726 17.2672 9.67378 13.898 9.02585 11.1767C8.6371 10.0104 9.41461 8.71453 10.5809 8.32582C12.2655 7.80748 12.7838 5.60454 11.488 4.30869L7.85959 0.68032C6.82291 -0.226773 5.26789 -0.226773 4.3608 0.68032L1.89869 3.14243C-0.56342 5.73413 2.15786 12.6021 8.24834 18.6926C14.3388 24.7831 21.2068 27.634 23.7985 25.0423L26.2606 22.5801C27.1678 21.5435 27.1678 19.9885 26.2606 19.0814Z" fill="url(#paint0_linear)"/>
<defs>
<linearGradient id="paint0_linear" x1="-7.98549" y1="13.2" x2="31.3317" y2="13.2" gradientUnits="userSpaceOnUse">
<stop stop-color="#977752"/>
<stop offset="1" stop-color="#C9AF9E"/>
</linearGradient>
</defs>
</svg>
