<?xml version="1.0" encoding="UTF-8" standalone="no"?>
<!DOCTYPE svg PUBLIC "-//W3C//DTD SVG 1.1//EN" "http://www.w3.org/Graphics/SVG/1.1/DTD/svg11.dtd">
<svg version="1.1" xmlns="http://www.w3.org/2000/svg" xmlns:xlink="http://www.w3.org/1999/xlink" preserveAspectRatio="xMidYMid meet" viewBox="0 0 670 670" width="670" height="670"><defs><path d="M869 868L-197 868L-197 -198L869 -198L869 868" id="a1WnPRdVHp"></path><path d="M674.74 673.74L-2.74 673.74L-2.74 -3.74L674.74 -3.74L674.74 673.74" id="glD9JpNQs"></path><path d="M347.96 217.52C420.77 228.53 454.36 262.53 463.73 334.52C463.73 335.02 463.85 335.66 463.85 336.16C464.23 342.66 462.73 351.15 471.72 351.41C479.33 351.53 479.84 345.78 479.59 340.15C479.59 338.41 479.46 336.65 479.46 335.02C480.34 267.27 420.02 204.41 350.09 202.02C344.84 202.77 333.85 198.53 333.23 210.15C332.73 217.9 341.97 216.65 347.96 217.52C347.96 217.52 347.96 217.52 347.96 217.52" id="a1jUdKH0CL"></path><path d="M366.32 271.65C361.7 271.77 357.08 272.28 355.33 277.15C352.83 284.52 358.21 286.27 363.7 287.15C382.18 290.03 391.92 300.65 393.79 318.78C394.04 321.03 394.8 323.15 396.17 324.65C397.67 326.41 399.67 327.4 402.29 327.03C403.79 326.9 405.03 326.41 405.91 325.78C409.16 323.65 409.53 319.15 409.4 314.9C409.66 294.65 386.3 271.15 366.32 271.65C366.32 271.65 366.32 271.65 366.32 271.65" id="h4jjzWbOIN"></path><path d="M459.73 413.65C450.61 406.41 440.87 400.03 431.26 393.41C412.27 380.28 394.8 379.15 380.56 400.41C372.57 412.28 361.33 412.78 349.71 407.53C317.37 393.16 292.52 371.16 277.91 338.91C275.66 333.9 274.16 329.03 273.91 324.4C273.41 316.03 276.91 308.41 286.65 301.9C294.64 296.52 302.76 290.28 302.01 278.53C301.26 263.4 263.67 212.64 248.94 207.4C242.69 205.15 236.58 205.27 230.33 207.4C195.62 218.77 181.25 246.9 194.99 280.03C202.73 298.53 211.47 315.91 221.21 332.28C264.05 403.91 327.11 456.04 408.15 490.28C413.78 492.66 420.14 493.66 423.39 494.41C445.99 494.66 472.59 473.28 480.21 451.91C487.7 431.53 472.09 423.41 459.73 413.65C459.73 413.65 459.73 413.65 459.73 413.65" id="eqEQcu8xB"></path><path d="M362.2 237.27C355.21 236.4 345.97 233.15 344.34 242.77C342.59 252.78 352.96 251.77 359.58 253.15C404.54 263.02 420.27 279.15 427.64 322.9C427.89 324.78 428.01 326.9 428.14 329.03C428.51 334.16 429.76 338.78 437.63 337.65C441.62 337.03 443 334.65 443.37 331.78C443.75 328.78 443.12 325.41 443.5 322.9C443.87 280.91 407.16 242.52 362.2 237.27C362.2 237.27 362.2 237.27 362.2 237.27" id="b2jZrlkFYm"></path></defs><g><g><g><use xlink:href="#a1WnPRdVHp" opacity="1" fill="#ffffff" fill-opacity="1"></use><g><use xlink:href="#a1WnPRdVHp" opacity="1" fill-opacity="0" stroke="#000000" stroke-width="1" stroke-opacity="0"></use></g></g><g><use xlink:href="#glD9JpNQs" opacity="1" fill="#665cac" fill-opacity="1"></use><g><use xlink:href="#glD9JpNQs" opacity="1" fill-opacity="0" stroke="#000000" stroke-width="1" stroke-opacity="0"></use></g></g><g><use xlink:href="#a1jUdKH0CL" opacity="1" fill="#ffffff" fill-opacity="1"></use><g><use xlink:href="#a1jUdKH0CL" opacity="1" fill-opacity="0" stroke="#000000" stroke-width="1" stroke-opacity="0"></use></g></g><g><use xlink:href="#h4jjzWbOIN" opacity="1" fill="#ffffff" fill-opacity="1"></use><g><use xlink:href="#h4jjzWbOIN" opacity="1" fill-opacity="0" stroke="#000000" stroke-width="1" stroke-opacity="0"></use></g></g><g><use xlink:href="#eqEQcu8xB" opacity="1" fill="#ffffff" fill-opacity="1"></use><g><use xlink:href="#eqEQcu8xB" opacity="1" fill-opacity="0" stroke="#000000" stroke-width="1" stroke-opacity="0"></use></g></g><g><use xlink:href="#b2jZrlkFYm" opacity="1" fill="#ffffff" fill-opacity="1"></use><g><use xlink:href="#b2jZrlkFYm" opacity="1" fill-opacity="0" stroke="#000000" stroke-width="1" stroke-opacity="0"></use></g></g></g></g></svg>