<?xml version="1.0" encoding="UTF-8" standalone="no"?>
<!DOCTYPE svg PUBLIC "-//W3C//DTD SVG 1.1//EN" "http://www.w3.org/Graphics/SVG/1.1/DTD/svg11.dtd">
<svg version="1.1" xmlns="http://www.w3.org/2000/svg" xmlns:xlink="http://www.w3.org/1999/xlink" preserveAspectRatio="xMidYMid meet" viewBox="0 0 667 667" width="667" height="667"><defs><path d="M-4.31 -4.68L686.64 -4.68L686.64 676.79L-4.31 676.79L-4.31 -4.68Z" id="c13UmxEEEZ"></path><path d="M414.15 368.98C382.35 353.13 379.02 351.01 374.92 357.18C372.07 361.44 363.77 371.12 361.26 373.98C358.73 376.8 356.22 377.02 351.92 375.07C347.58 372.9 333.65 368.34 317.17 353.59C304.32 342.09 295.7 327.99 293.16 323.65C288.92 316.33 297.79 315.29 305.86 300.02C307.3 296.98 306.56 294.59 305.49 292.44C304.41 290.27 295.78 269.01 292.16 260.53C288.69 252.09 285.12 253.16 282.44 253.16C274.11 252.44 268.02 252.55 262.66 258.13C239.31 283.79 245.2 310.26 265.17 338.4C304.42 389.78 325.34 399.23 363.58 412.37C373.9 415.65 383.32 415.19 390.77 414.12C399.07 412.8 416.32 403.69 419.92 393.49C423.61 383.3 423.61 374.83 422.53 372.88C421.46 370.93 418.62 369.85 414.28 367.89C414.26 368.11 414.17 368.87 414.15 368.98Z" id="a1gtCoyeG"></path><path d="M457.86 210.85C346.66 103.35 162.62 181.32 162.54 332.98C162.54 363.29 170.48 392.86 185.61 418.96C183.98 424.9 175.8 454.61 161.08 508.08C216.06 493.75 246.6 485.78 252.7 484.19C367.03 545.95 508.13 463.94 508.19 333.07C508.19 287.13 490.26 243.9 457.64 211.42C457.69 211.31 457.82 210.97 457.86 210.85ZM262.18 455.58C261.83 455.37 260.1 454.34 256.97 452.49L202.74 466.59L217.27 413.87C215.2 410.62 214.04 408.81 213.81 408.45C154.17 313.5 222.69 189.41 335.68 189.41C374.06 189.41 410.09 204.38 437.22 231.49C464.34 258.38 479.29 294.41 479.29 332.59C479.21 442.98 358.02 511.93 262.18 455.58Z" id="d2qdgpyDGz"></path></defs><g><g><g><use xlink:href="#c13UmxEEEZ" opacity="1" fill="#40b93c" fill-opacity="1"></use></g><g><use xlink:href="#a1gtCoyeG" opacity="1" fill="#ffffff" fill-opacity="1"></use><g><use xlink:href="#a1gtCoyeG" opacity="1" fill-opacity="0" stroke="#000000" stroke-width="1" stroke-opacity="0"></use></g></g><g><use xlink:href="#d2qdgpyDGz" opacity="1" fill="#ffffff" fill-opacity="1"></use><g><use xlink:href="#d2qdgpyDGz" opacity="1" fill-opacity="0" stroke="#000000" stroke-width="1" stroke-opacity="0"></use></g></g></g></g></svg>